OpenSim_Sub02_EMGBaseline_GRF.mot
version=1
nRows=22
nColumns=19
inDegrees=no
endheader
time	lFx	lFy	lFz	lCOPx	lCOPy	lCOPz	rFx	rFy	rFz	rCOPx	rCOPy	rCOPz	lMx	lMy	lMz	rMx	rMy	rMz
50.45000000	27.80670525	495.10475915	33.96509285	0.91824045	0	-0.65439931	0.09466813	0.08674702	0.19906525	0.00000325	0	-0.00000121	0	-6.18109965	0	0	0.00000097	0.00000000
50.46000000	30.62690402	498.01919999	34.29486420	0.91148897	0	-0.65480002	0.08272083	0.07510575	0.11690562	-0.00000024	0	0.00000001	0	-6.19848194	0	0	0.00000423	0.00000000
50.47000000	33.69431160	500.63806313	34.70750793	0.90452045	0	-0.65521189	0.10664371	0.03436834	0.02674650	-0.00001305	0	0.00000463	0	-6.20603628	0	0	0.00000925	0.00000000
50.48000000	36.79980804	502.99160274	35.27651718	0.89774217	0	-0.65559114	0.16463638	0.00293954	-0.05755893	-0.00003903	0	0.00001412	0	-6.24389686	0	0	0.00001226	0.00000000
50.49000000	39.84028604	505.39737779	36.00930660	0.89129968	0	-0.65591213	0.18468994	0.02048246	-0.12279441	-0.00006987	0	0.00002561	0	-6.30071337	0	0	0.00000241	0.00000000
50.50000000	42.85481125	508.35974505	36.88096423	0.88533013	0	-0.65621619	0.05535633	0.11362909	-0.12213578	-0.00006573	0	0.00002480	0	-6.37328682	0	0	-0.00003912	-0.00000000
50.51000000	45.92102376	512.04671552	37.80233532	0.87977427	0	-0.65653877	-0.23383752	0.27162553	-0.18361878	0.00006386	0	-0.00002123	0	-6.47412128	0	0	-0.00012878	-0.00000000
50.52000000	49.04660305	516.51138905	38.73421627	0.87468986	0	-0.65692104	-0.60460534	0.54316799	-0.26201535	0.00044459	0	-0.00015898	0	-6.61625280	0	0	-0.00024559	-0.00000000
50.53000000	52.10371883	521.65629747	39.64035845	0.86993786	0	-0.65736260	-0.76247846	0.72501185	-0.26330429	0.00111780	0	-0.00040582	0	-6.77283629	0	0	-0.00026290	-0.00000000
50.54000000	54.95349932	526.92727619	40.53500073	0.86528001	0	-0.65787474	-0.55840016	0.58843988	-0.20701112	0.00173335	0	-0.00063850	0	-6.91533646	0	0	0.00012707	0.00000000
50.55000000	57.58015026	531.52800236	41.53862937	0.86075105	0	-0.65843097	-0.20663902	0.24652693	-0.09058517	0.00106352	0	-0.00041425	0	-7.10522384	0	0	0.00138557	0.00000000
50.56000000	60.03569775	534.70941428	42.65517645	0.85656122	0	-0.65900817	-0.02689980	-0.23069624	-0.00209675	-0.00331951	0	0.00115396	0	-7.35074062	0	0	0.00375644	0.00000000
50.57000000	62.15644742	535.92055949	43.88293623	0.85298613	0	-0.65963170	-0.14573686	-0.96421553	0.02976016	-0.01418667	0	0.00510061	0	-7.66344752	0	0	0.00623650	0.00000000
50.58000000	63.80512000	534.59774670	45.07810182	0.85008790	0	-0.66031218	-0.59566192	-2.13949492	0.03585876	-0.03080789	0	0.01122638	0	-8.04413794	0	0	0.00483264	-0.00000000
50.59000000	64.93046739	530.38248603	45.93881098	0.84771112	0	-0.66103446	-1.18351735	-3.48551847	-0.10052703	-0.04044293	0	0.01499904	0	-8.42833755	0	0	-0.00886570	0.00000000
50.60000000	65.51899299	523.13358834	46.18099610	0.84575253	0	-0.66177498	-1.15767230	-3.23081422	-0.59317253	-0.00688953	0	0.00331092	0	-8.76582912	0	0	-0.04544375	-0.00000000
50.61000000	65.49176164	512.65498165	45.55864382	0.84426042	0	-0.66248849	0.94688266	3.15557002	-1.42040450	0.13228067	0	-0.04674693	0	-9.02539386	0	0	-0.10538851	0.00000000
50.62000000	64.68329035	498.97984311	43.96149182	0.84344442	0	-0.66315757	5.89383531	23.50657384	-2.29246898	0.43075268	0	-0.15554705	0	-9.16081600	0	0	-0.15005171	0.00000000
50.63000000	63.01469988	482.43108344	41.39565659	0.84336056	0	-0.66379025	9.92458729	65.83353416	-3.12539636	0.82016738	0	-0.29985759	0	-9.14290328	0	0	-0.05630831	0.00000000
50.64000000	60.67729196	463.66874154	37.97613719	0.84380741	0	-0.66434991	3.27648835	131.79827171	-4.74668532	1.09823545	0	-0.40505369	0	-8.94593255	0	0	0.32685666	-0.00000000
50.65000000	58.12477632	443.25263683	33.82345697	0.84467623	0	-0.66473022	-17.90493572	214.58125560	-7.60815341	1.22142329	0	-0.45149622	0	-8.53996845	0	0	0.69679142	-0.00000000
50.66000000	55.81690610	421.12608099	29.13965604	0.84571753	0	-0.66475300	-45.70077753	300.23649138	-10.00415391	1.25089996	0	-0.46072302	0	-7.97714102	0	0	0.69566706	-0.00000000
